<?xml version="1.0" encoding="UTF-8"?>
<svg width="36px" height="36px" viewBox="0 0 36 36" xmlns="http://www.w3.org/2000/svg" xmlns:xlink="http://www.w3.org/1999/xlink" version="1.1">
 <!-- Generated by Pixelmator Pro 2.0.8 -->
 <g id="iPad-Pro-11″">
  <defs>
   <linearGradient id="linear-gradient" gradientUnits="userSpaceOnUse" x1="8.579" y1="26.199" x2="8.579" y2="2.137">
    <stop offset="0" stop-color="#f5576c" stop-opacity="1"/>
    <stop offset="1" stop-color="#f093fb" stop-opacity="1"/>
   </linearGradient>
  </defs>
  <path id="路径" d="M0.919 16.981 L0.919 0 16.238 0 16.238 16.981" fill-opacity="1" fill="url(#linear-gradient)" stroke="none"/>
  <defs>
   <linearGradient id="linear-gradient-1" gradientUnits="userSpaceOnUse" x1="27.268" y1="21.736" x2="27.268" y2="46.36">
    <stop offset="0" stop-color="#f093fb" stop-opacity="1"/>
    <stop offset="1" stop-color="#f5576c" stop-opacity="1"/>
   </linearGradient>
  </defs>
  <path id="椭圆形" d="M34.928 8.491 C34.928 13.18 31.498 16.981 27.268 16.981 23.038 16.981 19.609 13.18 19.609 8.491 19.609 3.801 23.038 0 27.268 0 31.498 0 34.928 3.801 34.928 8.491 Z" fill-opacity="1" fill="url(#linear-gradient-1)" stroke="none"/>
  <defs>
   <linearGradient id="linear-gradient-2" gradientUnits="userSpaceOnUse" x1="27.268" y1="19.953" x2="27.268" y2="37.795">
    <stop offset="0" stop-color="#f093fb" stop-opacity="1"/>
    <stop offset="1" stop-color="#f5576c" stop-opacity="1"/>
   </linearGradient>
  </defs>
  <path id="路径-1" d="M31.864 19.019 C33.556 19.019 34.928 20.539 34.928 22.415 L34.928 32.604 C34.928 34.479 33.556 36 31.864 36 L22.672 36 C20.98 36 19.609 34.479 19.609 32.604 L19.609 22.415 C19.609 20.539 20.98 19.019 22.672 19.019" fill-opacity="1" fill="url(#linear-gradient-2)" stroke="none"/>
  <defs>
   <linearGradient id="linear-gradient-3" gradientUnits="userSpaceOnUse" x1="9.345" y1="-20.266" x2="9.345" y2="19.698">
    <stop offset="0" stop-color="#f093fb" stop-opacity="1"/>
    <stop offset="0.573" stop-color="#f093fb" stop-opacity="1"/>
    <stop offset="0.887" stop-color="#f46792" stop-opacity="1"/>
    <stop offset="1" stop-color="#f5576c" stop-opacity="1"/>
   </linearGradient>
  </defs>
  <path id="三角形" d="M9.345 19.019 L17.77 36 0.919 36 Z" fill-opacity="1" fill="url(#linear-gradient-3)" stroke="none"/>
  <defs>
   <text id="string" transform="matrix(1.0 0.0 0.0 1.0 -2.0 15.0)" font-family="LuckiestGuy-Regular, Luckiest Guy" y="7.0" x="1.0" font-size="9.69" text-decoration="none">JR-FANK</text>
  </defs>
  <use id="JR-FANK" xlink:href="#string" fill="#000000" fill-opacity="1" stroke="none"/>
 </g>
</svg>
