<?xml version="1.0" encoding="UTF-8"?>
<svg width="40px" height="36px" viewBox="0 0 40 36" xmlns="http://www.w3.org/2000/svg" xmlns:xlink="http://www.w3.org/1999/xlink" version="1.1">
 <!-- Generated by Pixelmator Pro 2.0.8 -->
 <g id="iPad-Pro-11″">
  <defs>
   <linearGradient id="linear-gradient" gradientUnits="userSpaceOnUse" x1="9.532" y1="26.199" x2="9.532" y2="2.137">
    <stop offset="0" stop-color="#f5576c" stop-opacity="1"/>
    <stop offset="1" stop-color="#f093fb" stop-opacity="1"/>
   </linearGradient>
  </defs>
  <path id="路径" d="M1.021 16.981 L1.021 0 18.043 0 18.043 16.981" fill-opacity="1" fill="url(#linear-gradient)" stroke="none"/>
  <defs>
   <linearGradient id="linear-gradient-1" gradientUnits="userSpaceOnUse" x1="30.298" y1="21.736" x2="30.298" y2="46.36">
    <stop offset="0" stop-color="#f093fb" stop-opacity="1"/>
    <stop offset="1" stop-color="#f5576c" stop-opacity="1"/>
   </linearGradient>
  </defs>
  <path id="椭圆形" d="M38.809 8.491 C38.809 13.18 34.998 16.981 30.298 16.981 25.598 16.981 21.787 13.18 21.787 8.491 21.787 3.801 25.598 0 30.298 0 34.998 0 38.809 3.801 38.809 8.491 Z" fill-opacity="1" fill="url(#linear-gradient-1)" stroke="none"/>
  <defs>
   <linearGradient id="linear-gradient-2" gradientUnits="userSpaceOnUse" x1="30.298" y1="19.953" x2="30.298" y2="37.795">
    <stop offset="0" stop-color="#f093fb" stop-opacity="1"/>
    <stop offset="1" stop-color="#f5576c" stop-opacity="1"/>
   </linearGradient>
  </defs>
  <path id="路径-1" d="M35.404 19.019 C37.284 19.019 38.809 20.539 38.809 22.415 L38.809 32.604 C38.809 34.479 37.284 36 35.404 36 L25.191 36 C23.311 36 21.787 34.479 21.787 32.604 L21.787 22.415 C21.787 20.539 23.311 19.019 25.191 19.019" fill-opacity="1" fill="url(#linear-gradient-2)" stroke="none"/>
  <defs>
   <linearGradient id="linear-gradient-3" gradientUnits="userSpaceOnUse" x1="10.383" y1="-20.266" x2="10.383" y2="19.698">
    <stop offset="0" stop-color="#f093fb" stop-opacity="1"/>
    <stop offset="0.573" stop-color="#f093fb" stop-opacity="1"/>
    <stop offset="0.887" stop-color="#f46792" stop-opacity="1"/>
    <stop offset="1" stop-color="#f5576c" stop-opacity="1"/>
   </linearGradient>
  </defs>
  <path id="三角形" d="M10.383 19.019 L19.745 36 1.021 36 Z" fill-opacity="1" fill="url(#linear-gradient-3)" stroke="none"/>
  <defs>
   <text id="string" transform="matrix(1.0 0.0 0.0 1.0 -1.0 15.0)" y="7.0" font-family="LuckiestGuy-Regular, Luckiest Guy" x="1.0" font-size="10.201" text-decoration="none">JR-FANK</text>
  </defs>
  <use id="JR-FANK" xlink:href="#string" fill="#000000" fill-opacity="1" stroke="none"/>
 </g>
</svg>
